<svg width="41" height="37" viewBox="0 0 41 37" fill="none" xmlns="http://www.w3.org/2000/svg">
<path d="M30.1094 0.000982631C31.6175 0.000982631 33.0322 0.296755 34.3535 0.888299C35.6748 1.47984 36.8293 2.27774 37.8169 3.28199C38.8045 4.28624 39.5786 5.4762 40.1392 6.85189C40.6997 8.22757 40.9867 9.6858 41 11.2266C41 12.7261 40.7264 14.1636 40.1792 15.5393C39.632 16.915 38.8446 18.1256 37.8169 19.1711L21.3608 36.1138C20.8895 36.599 20.1105 36.599 19.6392 36.1138L3.18311 19.1711C2.16878 18.1256 1.38802 16.915 0.84082 15.5393C0.29362 14.1636 0.0133464 12.7261 0 11.2266C0 9.6858 0.280273 8.23445 0.84082 6.87252C1.40137 5.5106 2.18213 4.32063 3.18311 3.30262C4.18408 2.28462 5.33854 1.47984 6.64648 0.888299C7.95443 0.296755 9.36914 0.000982631 10.8906 0.000982631C11.9984 0.000982631 12.986 0.131673 13.8535 0.393053C14.721 0.654432 15.5218 1.01211 16.2559 1.46609C16.9899 1.92006 17.6973 2.47721 18.3779 3.13754C18.7844 3.53187 19.2004 3.94338 19.6259 4.37205C20.1058 4.85553 20.8903 4.85179 21.3674 4.36558C21.7909 3.93404 22.2025 3.52469 22.6021 3.13754C23.2694 2.49097 23.9767 1.9407 24.7241 1.48672C25.4715 1.03275 26.279 0.668189 27.1465 0.393053C28.014 0.117916 29.0016 -0.0127742 30.1094 0.000982631ZM35.9951 17.2933C36.7826 16.4817 37.3831 15.5531 37.7969 14.5076C38.2106 13.462 38.4175 12.3684 38.4175 11.2266C38.4175 10.0297 38.2039 8.91541 37.7769 7.88365C37.3498 6.85189 36.7625 5.95082 36.0151 5.18043C35.2677 4.41005 34.3869 3.81163 33.3726 3.38517C32.3582 2.9587 31.2705 2.73859 30.1094 2.72484C28.9883 2.72484 27.994 2.90368 27.1265 3.26135C26.259 3.61903 25.4582 4.10052 24.7241 4.70582C23.9901 5.31112 23.2894 5.97833 22.6221 6.70744C22.2158 7.15136 21.7946 7.60802 21.3587 8.07744C20.8923 8.57954 20.1 8.5869 19.6303 8.08789C19.2125 7.64392 18.8017 7.19752 18.398 6.74871C17.7173 5.99209 17.0099 5.31112 16.2759 4.70582C15.5418 4.10052 14.7344 3.60527 13.8535 3.22008C12.9727 2.83489 11.985 2.6423 10.8906 2.6423C9.74284 2.6423 8.66178 2.86241 7.64746 3.30262C6.63314 3.74284 5.75228 4.35502 5.00488 5.13916C4.25749 5.9233 3.66357 6.83813 3.22314 7.88365C2.78271 8.92917 2.5625 10.0435 2.5625 11.2266C2.5625 12.3684 2.76937 13.462 3.18311 14.5076C3.59684 15.5531 4.2041 16.4817 5.00488 17.2933L19.6387 32.3772C20.1101 32.8631 20.8899 32.8631 21.3613 32.3772L35.9951 17.2933Z" fill="white"/>
</svg>
